Coordinates
version=1
nRows=49
nColumns=12
inDegrees=yes

Units are S.I. units (second, meters, Newtons, ...)
Angles are in degrees

endheader
time	SC_y	SC_z	SC_x	AC_y	AC_z	AC_x	GH_y	GH_z	GH_yy	EL_x	PS_y
       0.0              -46.59          3.888          16.85          59.84         -16.77        -0.1392         -13.11          33.44           37.2          122.1          113.3
   0.02942              -46.58           3.89          16.85          59.84         -16.77        -0.1399         -13.11          33.44          37.18          122.0          113.3
   0.05884              -46.58          3.892          16.86          59.84         -16.77        -0.1407         -13.11          33.44          37.15          122.0          113.3
   0.08826              -46.58          3.894          16.87          59.84         -16.77        -0.1415         -13.11          33.44          37.11          122.0          113.3
    0.1177              -46.57          3.896          16.87          59.84         -16.77        -0.1424         -13.11          33.44          37.08          122.0          113.3
    0.1471              -46.57          3.899          16.88          59.85         -16.77        -0.1433         -13.11          33.44          37.04          122.0          113.3
    0.1765              -46.56          3.901          16.89          59.85         -16.77        -0.1443         -13.11          33.44          37.01          122.0          113.3
     0.206              -46.55          3.904           16.9          59.85         -16.77        -0.1454         -13.11          33.44          36.96          122.0          113.3
    0.2354              -46.55          3.907          16.91          59.85         -16.77        -0.1465         -13.12          33.45          36.92          122.0          113.3
    0.2648              -46.54           3.91          16.92          59.85         -16.77        -0.1478         -13.12          33.45          36.87          122.0          113.3
    0.2942              -46.53          3.914          16.93          59.85         -16.77        -0.1491         -13.12          33.45          36.82          122.0          113.3
    0.3236              -46.53          3.917          16.94          59.86         -16.77        -0.1505         -13.12          33.45          36.77          121.9          113.3
    0.3531              -46.52          3.921          16.95          59.86         -16.77         -0.152         -13.12          33.45          36.71          121.9          113.3
    0.3825              -46.51          3.926          16.97          59.86         -16.78        -0.1537         -13.12          33.45          36.64          121.9          113.3
    0.4119               -46.5           3.93          16.98          59.87         -16.78        -0.1555         -13.12          33.45          36.58          121.9          113.3
    0.4413              -46.49          3.935           17.0          59.87         -16.78        -0.1574         -13.12          33.46           36.5          121.9          113.3
    0.4707              -46.48          3.941          17.02          59.87         -16.78        -0.1595         -13.13          33.46          36.42          121.9          113.3
    0.5002              -46.46          3.947          17.03          59.88         -16.78        -0.1618         -13.13          33.46          36.33          121.8          113.4
    0.5296              -46.45          3.953          17.05          59.88         -16.78        -0.1643         -13.13          33.46          36.23          121.8          113.4
     0.559              -46.43           3.96          17.08          59.89         -16.78        -0.1671         -13.13          33.47          36.13          121.8          113.4
    0.5884              -46.42          3.968           17.1          59.89         -16.78        -0.1701         -13.14          33.47          36.01          121.7          113.4
    0.6179               -46.4          3.977          17.13           59.9         -16.79        -0.1734         -13.14          33.47          35.89          121.7          113.4
    0.6473              -46.38          3.986          17.16           59.9         -16.79        -0.1771         -13.14          33.48          35.74          121.7          113.4
    0.6767              -46.36          3.997          17.19          59.91         -16.79        -0.1812         -13.14          33.48          35.59          121.6          113.4
    0.7061              -46.33          4.009          17.23          59.92         -16.79        -0.1857         -13.15          33.48          35.41          121.6          113.4
    0.7355              -46.31          4.022          17.27          59.92          -16.8        -0.1907         -13.15          33.49          35.22          121.5          113.5
     0.765              -46.27          4.036          17.32          59.93          -16.8        -0.1964         -13.16           33.5           35.0          121.5          113.5
    0.7944              -46.24          4.053          17.37          59.94          -16.8        -0.2027         -13.16           33.5          34.76          121.4          113.5
    0.8238               -46.2          4.071          17.43          59.96         -16.81        -0.2099         -13.17          33.51          34.48          121.3          113.5
    0.8532              -46.16          4.093           17.5          59.97         -16.81        -0.2181         -13.17          33.52          34.17          121.3          113.5
    0.8826               -46.1          4.117          17.57          59.99         -16.82        -0.2274         -13.18          33.53          33.81          121.2          113.6
    0.9121              -46.05          4.144          17.66           60.0         -16.82        -0.2381         -13.19          33.54           33.4          121.1          113.6
    0.9415              -45.98          4.176          17.76          60.02         -16.83        -0.2504          -13.2          33.55          32.92          120.9          113.6
    0.9709               -45.9          4.214          17.88          60.05         -16.84        -0.2647         -13.21          33.56          32.37          120.8          113.7
       1.0              -45.81          4.257          18.02          60.08         -16.85        -0.2815         -13.23          33.58          31.73          120.6          113.8
      1.03               -45.7          4.308          18.18          60.11         -16.86        -0.3012         -13.24           33.6          30.97          120.4          113.8
     1.059              -45.57          4.369          18.38          60.15         -16.87        -0.3247         -13.26          33.62          30.06          120.2          113.9
     1.089              -45.42          4.442          18.61           60.2         -16.89        -0.3529         -13.28          33.65          28.98          119.9          114.0
     1.118              -45.23          4.531          18.89          60.25         -16.91        -0.3869         -13.31          33.68          27.67          119.5          114.1
     1.147               -45.0          4.639          19.23          60.32         -16.93        -0.4285         -13.35          33.72          26.07          119.1          114.2
     1.177              -44.72          4.772          19.65          60.41         -16.96        -0.4799         -13.39          33.78           24.1          118.6          114.4
     1.206              -44.37          4.938          20.18          60.52         -16.99        -0.5439         -13.44          33.84          21.63          118.0          114.6
     1.236              -43.92          5.147          20.85          60.65         -17.04        -0.6246         -13.51          33.92          18.53          117.1          114.9
     1.265              -43.36          5.413          21.69          60.82          -17.1        -0.7271         -13.59          34.02          14.58          116.1          115.2
     1.295              -42.64          5.754          22.77          61.05         -17.17        -0.8584          -13.7          34.15          9.536          114.8          115.7
     1.324              -41.72          6.191          24.16          61.33         -17.27         -1.027         -13.83          34.32          3.056          113.1          116.2
     1.353              -40.54          6.749          25.93          61.69         -17.39         -1.242         -14.01          34.53          -5.22          110.9          116.9
     1.383              -39.05          7.451          28.16          62.14         -17.54         -1.512         -14.23           34.8         -15.63          108.2          117.8
     1.412              -37.24          8.306          30.87           62.7         -17.72         -1.842          -14.5          35.12         -28.31          104.8          118.9
